<svg width="37" height="36" viewBox="0 0 37 36" fill="none" xmlns="http://www.w3.org/2000/svg">
<g clip-path="url(#clip0_6_11)">
<path d="M11.25 26.25C10.8375 26.25 10.4845 26.1033 10.191 25.8098C9.8975 25.5163 9.7505 25.163 9.75 24.75V11.25C9.75 10.8375 9.897 10.4845 10.191 10.191C10.485 9.8975 10.838 9.7505 11.25 9.75H24.75C25.1625 9.75 25.5158 9.897 25.8098 10.191C26.1038 10.485 26.2505 10.838 26.25 11.25V24.75C26.25 25.1625 26.1033 25.5158 25.8098 25.8098C25.5163 26.1038 25.163 26.2505 24.75 26.25H11.25ZM14.1375 23.25H21.75C22.1625 23.25 22.5158 23.1033 22.8098 22.8098C23.1038 22.5163 23.2505 22.163 23.25 21.75V19.5C23.25 19.2875 23.178 19.1095 23.034 18.966C22.89 18.8225 22.712 18.7505 22.5 18.75C22.288 18.7495 22.11 18.8215 21.966 18.966C21.822 19.1105 21.75 19.2885 21.75 19.5V21.75H14.1375L14.775 21.1125C14.925 20.9625 14.997 20.7875 14.991 20.5875C14.985 20.3875 14.913 20.2125 14.775 20.0625C14.625 19.9125 14.447 19.8345 14.241 19.8285C14.035 19.8225 13.8568 19.8943 13.7063 20.0438L11.775 21.975C11.7 22.05 11.6467 22.1312 11.6152 22.2188C11.5837 22.3063 11.5685 22.4 11.5695 22.5C11.5705 22.6 11.5863 22.6937 11.6168 22.7812C11.6473 22.8688 11.7002 22.95 11.7757 23.025L13.707 24.9562C13.857 25.1062 14.0352 25.1782 14.2417 25.1722C14.4482 25.1662 14.6263 25.088 14.7758 24.9375C14.9133 24.7875 14.9852 24.6125 14.9917 24.4125C14.9982 24.2125 14.9263 24.0375 14.7758 23.8875L14.1375 23.25ZM21.8625 14.25L21.225 14.8875C21.075 15.0375 21.003 15.2125 21.009 15.4125C21.015 15.6125 21.087 15.7875 21.225 15.9375C21.375 16.0875 21.553 16.1655 21.759 16.1715C21.965 16.1775 22.1433 16.1057 22.2938 15.9562L24.225 14.025C24.3 13.95 24.3533 13.8688 24.3848 13.7812C24.4163 13.6937 24.4318 13.6 24.4313 13.5C24.4308 13.4 24.4153 13.3063 24.3848 13.2188C24.3543 13.1312 24.301 13.05 24.225 12.975L22.2938 11.0437C22.1438 10.8937 21.9658 10.8218 21.7598 10.8278C21.5538 10.8338 21.3755 10.912 21.225 11.0625C21.0875 11.2125 21.0155 11.3875 21.009 11.5875C21.0025 11.7875 21.0745 11.9625 21.225 12.1125L21.8625 12.75H14.25C13.8375 12.75 13.4845 12.897 13.191 13.191C12.8975 13.485 12.7505 13.838 12.75 14.25V16.5C12.75 16.7125 12.822 16.8908 12.966 17.0348C13.11 17.1788 13.288 17.2505 13.5 17.25C13.712 17.2495 13.8902 17.1775 14.0347 17.034C14.1792 16.8905 14.251 16.7125 14.25 16.5V14.25H21.8625ZM17.625 16.875V19.6875C17.625 19.85 17.6783 19.9845 17.7848 20.091C17.8913 20.1975 18.0255 20.2505 18.1875 20.25C18.3495 20.2495 18.484 20.1962 18.591 20.0902C18.698 19.9842 18.751 19.85 18.75 19.6875V16.5C18.75 16.2875 18.678 16.1095 18.534 15.966C18.39 15.8225 18.212 15.7505 18 15.75H17.0625C16.9 15.75 16.7658 15.8033 16.6598 15.9098C16.5538 16.0163 16.5005 16.1505 16.5 16.3125C16.4995 16.4745 16.5528 16.609 16.6598 16.716C16.7668 16.823 16.901 16.876 17.0625 16.875H17.625Z" fill="black"/>
</g>
<defs>
<clipPath id="clip0_6_11">
<rect width="18" height="18" fill="white" transform="translate(9 9)"/>
</clipPath>
</defs>
</svg>
