<svg width="36" height="36" viewBox="0 0 36 36" fill="none" xmlns="http://www.w3.org/2000/svg">
<g clip-path="url(#clip0_4_8)">
<path d="M10 26.025V10.5C10 10.075 10.15 9.71851 10.45 9.43051C10.75 9.14251 11.1 8.99901 11.5 9.00001C11.625 9.00001 11.7565 9.01851 11.8945 9.05551C12.0325 9.09251 12.1635 9.14901 12.2875 9.22501L24.5125 16.9875C24.7375 17.1375 24.9065 17.325 25.0195 17.55C25.1325 17.775 25.1885 18.0125 25.1875 18.2625C25.1865 18.5125 25.1305 18.75 25.0195 18.975C24.9085 19.2 24.7395 19.3875 24.5125 19.5375L12.2875 27.3C12.1625 27.375 12.0315 27.4315 11.8945 27.4695C11.7575 27.5075 11.626 27.526 11.5 27.525C11.1 27.525 10.75 27.381 10.45 27.093C10.15 26.805 10 26.449 10 26.025Z" fill="black"/>
</g>
<defs>
<clipPath id="clip0_4_8">
<rect width="36" height="36" fill="white"/>
</clipPath>
</defs>
</svg>
